<svg 
  width="48" 
  height="57" 
  viewBox="0 0 48 57" 
  fill="none" 
  xmlns="http://www.w3.org/2000/svg"
>
  <path 
    opacity="0.5" 
    d="M32 0.666687H16V6.00002H32V0.666687ZM21.3333 35.3334H26.6667V19.3334H21.3333V35.3334ZM42.7467 
      17.7067L46.5333 13.92C45.3867 12.56 44.1333 11.28 42.7733 10.16L38.9867 13.9467C34.8533 10.64 29.6533 
      8.66669 24 8.66669C10.7467 8.66669 0 19.4134 0 32.6667C0 45.92 10.72 56.6667 24 56.6667C37.28 56.6667 
      48 45.92 48 32.6667C48 27.0134 46.0267 21.8134 42.7467 17.7067ZM24 51.3334C13.68 51.3334 5.33333 42.9867 
      5.33333 32.6667C5.33333 22.3467 13.68 14 24 14C34.32 14 42.6667 22.3467 42.6667 32.6667C42.6667 42.9867 
      34.32 51.3334 24 51.3334Z" 
    fill="#FDB100"
  />
</svg>
