<svg 
  width="50" 
  height="50" 
  viewBox="0 0 50 50" 
  fill="none" 
  xmlns="http://www.w3.org/2000/svg"
>
  <rect 
    width="50" 
    height="50" 
    rx="12" 
    fill="#FFEFCC"
  />
  <path 
    fill-rule="evenodd" 
    clip-rule="evenodd" 
    d="M17.4951 35.5541H32.5336V37H17.4951V35.5541Z" 
    fill="#F29E1F"
  />
  <path 
    fill-rule="evenodd" 
    clip-rule="evenodd" 
    d="M31.7049 18.6623C31.3626 17.3298 30.565 16.1462 29.4398 15.3009C28.3145 
      14.4556 26.9267 13.9975 25.4985 14C24.0265 13.9971 22.5987 14.4832 21.4569 
      15.3761C20.3152 16.2689 19.5297 17.5136 19.2335 18.8993C18.8253 18.7906 
      18.4043 18.7327 17.9808 18.7273C17.3266 18.727 16.6787 18.8505 16.0742 
      19.0909C15.4698 19.3313 14.9205 19.6839 14.458 20.1285C13.9954 20.573 
      13.6285 21.1008 13.3783 21.6817C13.1282 22.2626 12.9996 22.8852 13 
      23.5139C13 26.1573 14.7851 28.3005 17.5371 28.3005C17.5657 28.3005 
      17.5913 28.2933 17.6213 28.2933V34.0467H32.4719V29.1561C35.3037 28.9538 
      37 26.6862 37 23.9143C36.9977 22.5501 36.4443 21.24 35.4565 20.2603C34.4687 
      19.2805 33.1237 18.7076 31.7049 18.6623ZM24.8639 16.4699C23.5977 17.2561 
      22.7841 18.4947 22.7841 19.8922H20.8276C20.8276 17.8718 22.5314 16.1765 
      24.8338 15.701C25.2504 15.6172 25.5136 16.0652 24.8639 16.4699Z" 
    fill="#F29E1F"
  />
</svg>
