<svg 
  width="59" 
  height="38" 
  viewBox="0 0 59 38" 
  fill="none" 
  xmlns="http://www.w3.org/2000/svg"
>
  <path 
    opacity="0.5" 
    d="M41.3333 21.6666C38.1333 21.6666 33.1467 22.5733 29.3333 24.3333C25.52 22.5466 
      20.5333 21.6666 17.3333 21.6666C11.5467 21.6666 0 24.5466 0 30.3333V37.6666H58.6667V30.3333C58.6667 
      24.5466 47.12 21.6666 41.3333 21.6666ZM30.6667 33.6666H4V30.3333C4 28.8933 10.8267 25.6666 17.3333 
      25.6666C23.84 25.6666 30.6667 28.8933 30.6667 30.3333V33.6666ZM54.6667 33.6666H34.6667V30.3333C34.6667 
      29.1066 34.1333 28.04 33.28 27.08C35.6267 26.28 38.5067 25.6666 41.3333 25.6666C47.84 25.6666 54.6667 
      28.8933 54.6667 30.3333V33.6666ZM17.3333 19C22.48 19 26.6667 14.8133 26.6667 9.66665C26.6667 4.51998 
      22.48 0.333313 17.3333 0.333313C12.1867 0.333313 8 4.51998 8 9.66665C8 14.8133 12.1867 19 17.3333 
      19ZM17.3333 4.33331C20.2667 4.33331 22.6667 6.73331 22.6667 9.66665C22.6667 12.6 20.2667 15 17.3333 
      15C14.4 15 12 12.6 12 9.66665C12 6.73331 14.4 4.33331 17.3333 4.33331ZM41.3333 19C46.48 19 50.6667 
      14.8133 50.6667 9.66665C50.6667 4.51998 46.48 0.333313 41.3333 0.333313C36.1867 0.333313 32 4.51998 
      32 9.66665C32 14.8133 36.1867 19 41.3333 19ZM41.3333 4.33331C44.2667 4.33331 46.6667 6.73331 46.6667 
      9.66665C46.6667 12.6 44.2667 15 41.3333 15C38.4 15 36 12.6 36 9.66665C36 6.73331 38.4 4.33331 41.3333 
      4.33331Z" 
    fill="#FDB100"
  />
</svg>
