<svg 
  width="50" 
  height="50" 
  viewBox="0 0 50 50" 
  fill="none" 
  xmlns="http://www.w3.org/2000/svg"
>
  <rect 
    width="50" 
    height="50" 
    rx="12" 
    fill="#FFEFCC"
  />
  <path 
    d="M26.9675 14L25.7636 15.2088L27.5471 16.9995C27.7924 17.2793 27.915 
      17.6039 27.915 17.9732C27.915 18.3426 27.7924 18.6895 27.5471 18.9358L23.5899 
      22.9762L24.7046 24.1849L28.751 20.1445C29.3418 19.4842 29.6317 18.7567 29.6317 
      17.9732C29.6317 17.1898 29.3418 16.4511 28.751 15.7908L26.9675 14ZM22.5309 
      16.2608L21.327 17.4696L22.007 18.0964C22.2522 18.3426 22.3748 18.6783 22.3748 
      19.0925C22.3748 19.5066 22.2522 19.8423 22.007 20.0886L21.327 20.7153L22.5309 
      21.9241L23.1551 21.2414C23.7459 20.581 24.0469 19.8647 24.0469 19.0925C24.0469 
      18.2866 23.7459 17.5591 23.1551 16.8876L22.5309 16.2608ZM34.1797 18.0404C33.4106 
      18.0404 32.6972 18.3426 32.0395 18.9358L25.7636 25.2482L26.9675 26.3674L33.1876 
      20.1445C33.4663 19.8647 33.8007 19.7192 34.1797 19.7192C34.5588 19.7192 34.8932 
      19.8647 35.1719 20.1445L35.8518 20.8273L37 19.6185L36.3758 18.9358C35.7181 
      18.3426 34.9823 18.0404 34.1797 18.0404ZM18.5736 21.3309L13 37L28.6061 
      31.4039L18.5736 21.3309ZM31.9503 24.7557C31.17 24.7557 30.4566 25.0579 
      29.7877 25.6511L28.0153 27.4307L29.2192 28.6394L30.9916 26.8599C31.2703 
      26.58 31.5824 26.4346 31.9503 26.4346C32.3182 26.4346 32.6526 26.58 
      32.9313 26.8599L34.7371 28.6394L35.9076 27.4866L34.124 25.6511C33.4663 
      25.0579 32.7306 24.7557 31.9503 24.7557Z" 
    fill="#F29E1F"
  />
</svg>
