<svg 
  width="50" 
  height="50" 
  viewBox="0 0 50 50" 
  fill="none" 
  xmlns="http://www.w3.org/2000/svg"
>
  <rect 
    width="50" 
    height="50" 
    rx="12" 
    fill="#FFEFCC"
  />
  <path 
    d="M36.3056 13.7826L36.2204 13.6966C36.0003 13.4758 35.7388 13.3006 
      35.4509 13.1811C35.163 13.0615 34.8543 13 34.5425 13C34.2308 13 33.9221 
      13.0615 33.6342 13.1811C33.3463 13.3006 33.0848 13.4758 32.8647 
      13.6966L28.8431 17.7311C24.8398 15.2418 19.5162 15.7362 16.0405 
      19.2227C11.9861 23.2907 11.9869 29.8836 16.0405 33.9493C20.0946 
      38.0165 26.6667 38.0173 30.7219 33.9493C34.1703 30.4908 34.6827 
      25.2056 32.2663 21.2007L36.3056 17.1483C36.7506 16.7013 37.0004 
      16.0962 37.0004 15.4654C37.0004 14.8347 36.7506 14.2296 36.3056 
      13.7826ZM28.2559 29.2852C26.6175 32.9281 22.789 34.7485 19.7054 
      33.3509C16.6193 31.9524 15.4469 27.8648 17.0841 24.2219C18.7222 
      20.5775 22.5498 18.7579 25.6346 20.1555C28.7191 21.5531 29.8927 
      25.6416 28.2559 29.2852ZM34.4443 17.0563C34.0492 17.0554 33.6706 
      16.8978 33.3917 16.6179C33.1127 16.3381 32.9563 15.959 32.9567 
      15.5638C32.9567 14.7402 33.6231 14.0722 34.4443 14.0722C35.2656 
      14.0722 35.932 14.7402 35.932 15.5638C35.9324 15.959 35.7759 
      16.3381 35.497 16.6179C35.2181 16.8978 34.8395 17.0554 34.4443 
      17.0563Z" 
    fill="#F29E1F"
  />
  <path 
    d="M21.3812 29.7859C23.1485 29.7859 24.5812 28.3533 24.5812 26.586C24.5812 
      24.8188 23.1485 23.3861 21.3812 23.3861C19.6139 23.3861 18.1812 24.8188 
      18.1812 26.586C18.1812 28.3533 19.6139 29.7859 21.3812 29.7859Z" 
    fill="#F29E1F"
  />
</svg>
