<svg 
  width="42" 
  height="42" 
  viewBox="0 0 42 42" 
  fill="none" 
  xmlns="http://www.w3.org/2000/svg"
>
  <path 
    d="M11.5658 3.52275C14.1894 1.26035 17.5356 0.0108636 21 0C28.0613 0 33.9229 
      5.25 34.5608 12.0199C38.7397 12.6105 42 16.1096 42 20.4041C42 25.1186 38.0677 
      28.875 33.3034 28.875H26.25C25.9019 28.875 25.5681 28.7367 25.3219 28.4906C25.0758 
      28.2444 24.9375 27.9106 24.9375 27.5625C24.9375 27.2144 25.0758 26.8806 25.3219 
      26.6344C25.5681 26.3883 25.9019 26.25 26.25 26.25H33.306C36.6949 26.25 39.375 
      23.5935 39.375 20.4041C39.375 17.2121 36.6975 14.5556 33.3034 14.5556H31.9909V13.2431C31.9935 
      7.41563 27.111 2.625 21 2.625C18.1647 2.63633 15.4267 3.66039 13.2799 5.5125C11.2928 7.224 
      10.2533 9.28725 10.2533 10.9069V12.0829L9.08512 12.2115C5.418 12.6131 2.625 15.624 2.625 
      19.2097C2.625 23.0606 5.85375 26.25 9.92513 26.25H15.75C16.0981 26.25 16.4319 26.3883 
      16.6781 26.6344C16.9242 26.8806 17.0625 27.2144 17.0625 27.5625C17.0625 27.9106 16.9242 
      28.2444 16.6781 28.4906C16.4319 28.7367 16.0981 28.875 15.75 28.875H9.92513C4.4835 
      28.875 0 24.5858 0 19.2097C0 14.5819 3.32325 10.7494 7.72275 9.77812C8.09812 7.51275 
      9.555 5.25525 11.5658 3.52275Z" 
    fill="#F29E1F"
  />
  <path 
    d="M20.0709 41.6168C20.1929 41.739 20.3377 41.836 20.4972 41.9021C20.6566 
      41.9683 20.8276 42.0024 21.0002 42.0024C21.1728 42.0024 21.3438 41.9683 
      21.5032 41.9021C21.6627 41.836 21.8075 41.739 21.9294 41.6168L29.8044 
      33.7418C30.0509 33.4953 30.1893 33.161 30.1893 32.8125C30.1893 32.464 
      30.0509 32.1297 29.8044 31.8833C29.558 31.6368 29.2237 31.4983 28.8752 
      31.4983C28.5267 31.4983 28.1924 31.6368 27.9459 31.8833L22.3127 37.5191V14.4375C22.3127 
      14.0894 22.1744 13.7556 21.9283 13.5094C21.6821 13.2633 21.3483 13.125 21.0002 
      13.125C20.6521 13.125 20.3183 13.2633 20.0721 13.5094C19.826 13.7556 19.6877 
      14.0894 19.6877 14.4375V37.5191L14.0544 31.8833C13.808 31.6368 13.4737 
      31.4983 13.1252 31.4983C12.7767 31.4983 12.4424 31.6368 12.1959 31.8833C11.9495 
      32.1297 11.811 32.464 11.811 32.8125C11.811 33.161 11.9495 33.4953 12.1959 
      33.7418L20.0709 41.6168Z" 
    fill="#F29E1F"
  />
</svg>
