<svg 
  width="38" 
  height="38" 
  viewBox="0 0 38 38" 
  fill="none" 
  xmlns="http://www.w3.org/2000/svg"
>
  <circle cx="19" cy="19" r="19" fill="#FDB100" />
  <path 
    d="M19 12.9C20.16 12.9 21.1 13.84 21.1 15C21.1 16.16 20.16 17.1 19 
      17.1C17.84 17.1 16.9 16.16 16.9 15C16.9 13.84 17.84 12.9 19 12.9ZM19 
      21.9C21.97 21.9 25.1 23.36 25.1 24V25.1H12.9V24C12.9 23.36 16.03 21.9 
      19 21.9ZM19 11C16.79 11 15 12.79 15 15C15 17.21 16.79 19 19 19C21.21 19 
      23 17.21 23 15C23 12.79 21.21 11 19 11ZM19 20C16.33 20 11 21.34 11 
      24V27H27V24C27 21.34 21.67 20 19 20Z" 
    fill="white"
  />
</svg>
