<svg 
  width="98" 
  height="24" 
  viewBox="0 0 98 24" 
  fill="none" 
  xmlns="http://www.w3.org/2000/svg"
>
  <path 
    d="M11.696 19L8.456 14.32H8.264H4.88V19H0.992V2.2H8.264C9.752 2.2 11.04 2.448 
    12.128 2.944C13.232 3.44 14.08 4.144 14.672 5.056C15.264 5.968 15.56 7.048 15.56 
    8.296C15.56 9.544 15.256 10.624 14.648 11.536C14.056 12.432 13.208 13.12 12.104 
    13.6L15.872 19H11.696ZM11.624 8.296C11.624 7.352 11.32 6.632 10.712 6.136C10.104 
    5.624 9.216 5.368 8.048 5.368H4.88V11.224H8.048C9.216 11.224 10.104 10.968 10.712 
    10.456C11.32 9.944 11.624 9.224 11.624 8.296ZM31.0244 12.592C31.0244 12.64 31.0004 
    12.976 30.9524 13.6H21.1844C21.3604 14.4 21.7764 15.032 22.4324 15.496C23.0884 15.96 
    23.9044 16.192 24.8804 16.192C25.5524 16.192 26.1444 16.096 26.6564 15.904C27.1844 
    15.696 27.6724 15.376 28.1204 14.944L30.1124 17.104C28.8964 18.496 27.1204 19.192 
    24.7844 19.192C23.3284 19.192 22.0404 18.912 20.9204 18.352C19.8004 17.776 18.9364 
    16.984 18.3284 15.976C17.7204 14.968 17.4164 13.824 17.4164 12.544C17.4164 11.28 
    17.7124 10.144 18.3044 9.136C18.9124 8.112 19.7364 7.32 20.7764 6.76C21.8324 6.184 
    23.0084 5.896 24.3044 5.896C25.5684 5.896 26.7124 6.168 27.7364 6.712C28.7604 7.256 
    29.5604 8.04 30.1364 9.064C30.7284 10.072 31.0244 11.248 31.0244 12.592ZM24.3284 
    8.728C23.4804 8.728 22.7684 8.968 22.1924 9.448C21.6164 9.928 21.2644 10.584 21.1364 
    11.416H27.4964C27.3684 10.6 27.0164 9.952 26.4404 9.472C25.8644 8.976 25.1604 8.728 
    24.3284 8.728ZM39.7571 19.192C38.3811 19.192 37.1411 18.912 36.0371 18.352C34.9491 
    17.776 34.0931 16.984 33.4691 15.976C32.8611 14.968 32.5571 13.824 32.5571 12.544C32.5571 
    11.264 32.8611 10.12 33.4691 9.112C34.0931 8.104 34.9491 7.32 36.0371 6.76C37.1411 6.184 
    38.3811 5.896 39.7571 5.896C41.1171 5.896 42.3011 6.184 43.3091 6.76C44.3331 7.32 45.0771 
    8.128 45.5411 9.184L42.6371 10.744C41.9651 9.56 40.9971 8.968 39.7331 8.968C38.7571 8.968 
    37.9491 9.288 37.3091 9.928C36.6691 10.568 36.3491 11.44 36.3491 12.544C36.3491 13.648 
    36.6691 14.52 37.3091 15.16C37.9491 15.8 38.7571 16.12 39.7331 16.12C41.0131 16.12 
    41.9811 15.528 42.6371 14.344L45.5411 15.928C45.0771 16.952 44.3331 17.752 43.3091 
    18.328C42.3011 18.904 41.1171 19.192 39.7571 19.192ZM47.6968 6.088H51.4408V19H47.6968V6.088ZM49.5688 
    4.288C48.8808 4.288 48.3208 4.088 47.8888 3.688C47.4568 3.288 47.2408 2.792 47.2408 2.2C47.2408 
    1.608 47.4568 1.112 47.8888 0.711999C48.3208 0.311999 48.8808 0.111999 49.5688 0.111999C50.2568 
    0.111999 50.8168 0.303999 51.2488 0.688C51.6808 1.072 51.8968 1.552 51.8968 2.128C51.8968 2.752 
    51.6808 3.272 51.2488 3.688C50.8168 4.088 50.2568 4.288 49.5688 4.288ZM62.5475 5.896C63.7475 
    5.896 64.8355 6.176 65.8115 6.736C66.8035 7.28 67.5795 8.056 68.1395 9.064C68.6995 10.056 
    68.9795 11.216 68.9795 12.544C68.9795 13.872 68.6995 15.04 68.1395 16.048C67.5795 17.04 
    66.8035 17.816 65.8115 18.376C64.8355 18.92 63.7475 19.192 62.5475 19.192C60.8995 19.192 
    59.6035 18.672 58.6595 17.632V23.656H54.9155V6.088H58.4915V7.576C59.4195 6.456 60.7715 5.896 
    62.5475 5.896ZM61.8995 16.12C62.8595 16.12 63.6435 15.8 64.2515 15.16C64.8755 14.504 65.1875 
    13.632 65.1875 12.544C65.1875 11.456 64.8755 10.592 64.2515 9.952C63.6435 9.296 62.8595 8.968 
    61.8995 8.968C60.9395 8.968 60.1475 9.296 59.5235 9.952C58.9155 10.592 58.6115 11.456 58.6115 
    12.544C58.6115 13.632 58.9155 14.504 59.5235 15.16C60.1475 15.8 60.9395 16.12 61.8995 
    16.12ZM84.1338 12.592C84.1338 12.64 84.1098 12.976 84.0618 13.6H74.2938C74.4698 14.4 
    74.8858 15.032 75.5418 15.496C76.1978 15.96 77.0138 16.192 77.9898 16.192C78.6618 16.192 
    79.2538 16.096 79.7658 15.904C80.2938 15.696 80.7818 15.376 81.2298 14.944L83.2218 
    17.104C82.0058 18.496 80.2298 19.192 77.8938 19.192C76.4378 19.192 75.1498 18.912 
    74.0298 18.352C72.9098 17.776 72.0458 16.984 71.4378 15.976C70.8298 14.968 70.5258 
    13.824 70.5258 12.544C70.5258 11.28 70.8218 10.144 71.4138 9.136C72.0218 8.112 72.8458 
    7.32 73.8858 6.76C74.9418 6.184 76.1178 5.896 77.4138 5.896C78.6778 5.896 79.8218 6.168 
    80.8458 6.712C81.8698 7.256 82.6698 8.04 83.2458 9.064C83.8378 10.072 84.1338 11.248 
    84.1338 12.592ZM77.4378 8.728C76.5898 8.728 75.8778 8.968 75.3018 9.448C74.7258 9.928 
    74.3738 10.584 74.2458 11.416H80.6058C80.4778 10.6 80.1258 9.952 79.5498 9.472C78.9738 
    8.976 78.2698 8.728 77.4378 8.728ZM90.9704 19.192C89.8984 19.192 88.8504 19.064 87.8264 
    18.808C86.8024 18.536 85.9864 18.2 85.3784 17.8L86.6264 15.112C87.2024 15.48 87.8984 15.784 
    88.7144 16.024C89.5304 16.248 90.3304 16.36 91.1144 16.36C92.6984 16.36 93.4904 15.968 
    93.4904 15.184C93.4904 14.816 93.2744 14.552 92.8424 14.392C92.4104 14.232 91.7464 14.096 
    90.8504 13.984C89.7944 13.824 88.9224 13.64 88.2344 13.432C87.5464 13.224 86.9464 12.856 
    86.4344 12.328C85.9384 11.8 85.6904 11.048 85.6904 10.072C85.6904 9.256 85.9224 8.536 
    86.3864 7.912C86.8664 7.272 87.5544 6.776 88.4504 6.424C89.3624 6.072 90.4344 5.896 91.6664 
    5.896C92.5784 5.896 93.4824 6 94.3784 6.208C95.2904 6.4 96.0424 6.672 96.6344 7.024L95.3864 
    9.688C94.2504 9.048 93.0104 8.728 91.6664 8.728C90.8664 8.728 90.2664 8.84 89.8664 
    9.064C89.4664 9.288 89.2664 9.576 89.2664 9.928C89.2664 10.328 89.4824 10.608 89.9144 
    10.768C90.3464 10.928 91.0344 11.08 91.9784 11.224C93.0344 11.4 93.8984 11.592 94.5704 
    11.8C95.2424 11.992 95.8264 12.352 96.3224 12.88C96.8184 13.408 97.0664 14.144 97.0664 
    15.088C97.0664 15.888 96.8264 16.6 96.3464 17.224C95.8664 17.848 95.1624 18.336 94.2344 
    18.688C93.3224 19.024 92.2344 19.192 90.9704 19.192Z" 
    fill="#FDB100"
  />
</svg>
